<?xml version="1.0" encoding="UTF-8" standalone="no"?><svg xmlns="http://www.w3.org/2000/svg" xmlns:xlink="http://www.w3.org/1999/xlink" contentStyleType="text/css" height="523px" preserveAspectRatio="none" style="width:1417px;height:523px;background:#FFFFFF;" version="1.1" viewBox="0 0 1417 523" width="1417px" zoomAndPan="magnify"><defs/><g><!--MD5=[3fd616f346a44cd59a91eb10b19e157c]
class User--><g id="elem_User"><rect codeLine="1" fill="#F1F1F1" height="145.7813" id="User" rx="2.5" ry="2.5" style="stroke:#181818;stroke-width:0.5;" width="204" x="7" y="15"/><ellipse cx="88.75" cy="31" fill="#ADD1B2" rx="11" ry="11" style="stroke:#181818;stroke-width:1.0;"/><path d="M91.7188,36.6406 Q91.1406,36.9375 90.5,37.0781 Q89.8594,37.2344 89.1563,37.2344 Q86.6563,37.2344 85.3281,35.5938 Q84.0156,33.9375 84.0156,30.8125 Q84.0156,27.6875 85.3281,26.0313 Q86.6563,24.375 89.1563,24.375 Q89.8594,24.375 90.5,24.5313 Q91.1563,24.6875 91.7188,24.9844 L91.7188,27.7031 Q91.0938,27.125 90.5,26.8594 Q89.9063,26.5781 89.2813,26.5781 Q87.9375,26.5781 87.25,27.6563 Q86.5625,28.7188 86.5625,30.8125 Q86.5625,32.9063 87.25,33.9844 Q87.9375,35.0469 89.2813,35.0469 Q89.9063,35.0469 90.5,34.7813 Q91.0938,34.5 91.7188,33.9219 L91.7188,36.6406 Z " fill="#000000"/><text fill="#000000" font-family="sans-serif" font-size="14" lengthAdjust="spacing" textLength="32" x="109.25" y="35.8467">User</text><line style="stroke:#181818;stroke-width:0.5;" x1="8" x2="210" y1="47" y2="47"/><ellipse cx="18" cy="60.6484" fill="none" rx="3" ry="3" style="stroke:#038048;stroke-width:1.0;"/><text fill="#000000" font-family="sans-serif" font-size="14" lengthAdjust="spacing" textLength="80" x="27" y="63.9951">String email</text><ellipse cx="18" cy="76.9453" fill="none" rx="3" ry="3" style="stroke:#038048;stroke-width:1.0;"/><text fill="#000000" font-family="sans-serif" font-size="14" lengthAdjust="spacing" textLength="146" x="27" y="80.292">String passwordHash</text><ellipse cx="18" cy="93.2422" fill="none" rx="3" ry="3" style="stroke:#038048;stroke-width:1.0;"/><text fill="#000000" font-family="sans-serif" font-size="14" lengthAdjust="spacing" textLength="132" x="27" y="96.5889">DateTime lastLogin</text><line style="stroke:#181818;stroke-width:0.5;" x1="8" x2="210" y1="103.8906" y2="103.8906"/><ellipse cx="18" cy="117.5391" fill="#84BE84" rx="3" ry="3" style="stroke:#038048;stroke-width:1.0;"/><text fill="#000000" font-family="sans-serif" font-size="14" lengthAdjust="spacing" textLength="162" x="27" y="120.8857">authenticate(): boolean</text><ellipse cx="18" cy="133.8359" fill="#84BE84" rx="3" ry="3" style="stroke:#038048;stroke-width:1.0;"/><text fill="#000000" font-family="sans-serif" font-size="14" lengthAdjust="spacing" textLength="104" x="27" y="137.1826">register(): User</text><ellipse cx="18" cy="150.1328" fill="#84BE84" rx="3" ry="3" style="stroke:#038048;stroke-width:1.0;"/><text fill="#000000" font-family="sans-serif" font-size="14" lengthAdjust="spacing" textLength="178" x="27" y="153.4795">resetPassword(): boolean</text></g><!--MD5=[ce480b89556c721a777060a35fcf8dc9]
class VisaApplication--><g id="elem_VisaApplication"><rect codeLine="10" fill="#F1F1F1" height="162.0781" id="VisaApplication" rx="2.5" ry="2.5" style="stroke:#181818;stroke-width:0.5;" width="223" x="246.5" y="7"/><ellipse cx="302.25" cy="23" fill="#ADD1B2" rx="11" ry="11" style="stroke:#181818;stroke-width:1.0;"/><path d="M305.2188,28.6406 Q304.6406,28.9375 304,29.0781 Q303.3594,29.2344 302.6563,29.2344 Q300.1563,29.2344 298.8281,27.5938 Q297.5156,25.9375 297.5156,22.8125 Q297.5156,19.6875 298.8281,18.0313 Q300.1563,16.375 302.6563,16.375 Q303.3594,16.375 304,16.5313 Q304.6563,16.6875 305.2188,16.9844 L305.2188,19.7031 Q304.5938,19.125 304,18.8594 Q303.4063,18.5781 302.7813,18.5781 Q301.4375,18.5781 300.75,19.6563 Q300.0625,20.7188 300.0625,22.8125 Q300.0625,24.9063 300.75,25.9844 Q301.4375,27.0469 302.7813,27.0469 Q303.4063,27.0469 304,26.7813 Q304.5938,26.5 305.2188,25.9219 L305.2188,28.6406 Z " fill="#000000"/><text fill="#000000" font-family="sans-serif" font-size="14" lengthAdjust="spacing" textLength="103" x="322.75" y="27.8467">VisaApplication</text><line style="stroke:#181818;stroke-width:0.5;" x1="247.5" x2="468.5" y1="39" y2="39"/><ellipse cx="257.5" cy="52.6484" fill="none" rx="3" ry="3" style="stroke:#038048;stroke-width:1.0;"/><text fill="#000000" font-family="sans-serif" font-size="14" lengthAdjust="spacing" textLength="50" x="266.5" y="55.9951">UUID id</text><ellipse cx="257.5" cy="68.9453" fill="none" rx="3" ry="3" style="stroke:#038048;stroke-width:1.0;"/><text fill="#000000" font-family="sans-serif" font-size="14" lengthAdjust="spacing" textLength="142" x="266.5" y="72.292">String applicantEmail</text><ellipse cx="257.5" cy="85.2422" fill="none" rx="3" ry="3" style="stroke:#038048;stroke-width:1.0;"/><text fill="#000000" font-family="sans-serif" font-size="14" lengthAdjust="spacing" textLength="135" x="266.5" y="88.5889">String travelCountry</text><ellipse cx="257.5" cy="101.5391" fill="none" rx="3" ry="3" style="stroke:#038048;stroke-width:1.0;"/><text fill="#000000" font-family="sans-serif" font-size="14" lengthAdjust="spacing" textLength="107" x="266.5" y="104.8857">Date travelDate</text><ellipse cx="257.5" cy="117.8359" fill="none" rx="3" ry="3" style="stroke:#038048;stroke-width:1.0;"/><text fill="#000000" font-family="sans-serif" font-size="14" lengthAdjust="spacing" textLength="87" x="266.5" y="121.1826">String status</text><line style="stroke:#181818;stroke-width:0.5;" x1="247.5" x2="468.5" y1="128.4844" y2="128.4844"/><ellipse cx="257.5" cy="142.1328" fill="#84BE84" rx="3" ry="3" style="stroke:#038048;stroke-width:1.0;"/><text fill="#000000" font-family="sans-serif" font-size="14" lengthAdjust="spacing" textLength="197" x="266.5" y="145.4795">submitApplication(): boolean</text><ellipse cx="257.5" cy="158.4297" fill="#84BE84" rx="3" ry="3" style="stroke:#038048;stroke-width:1.0;"/><text fill="#000000" font-family="sans-serif" font-size="14" lengthAdjust="spacing" textLength="174" x="266.5" y="161.7764">validateDetails(): boolean</text></g><!--MD5=[764fca796ce7f635542948d8fc39db5e]
class Payment--><g id="elem_Payment"><rect codeLine="20" fill="#F1F1F1" height="129.4844" id="Payment" rx="2.5" ry="2.5" style="stroke:#181818;stroke-width:0.5;" width="217" x="504.5" y="23.5"/><ellipse cx="578.75" cy="39.5" fill="#ADD1B2" rx="11" ry="11" style="stroke:#181818;stroke-width:1.0;"/><path d="M581.7188,45.1406 Q581.1406,45.4375 580.5,45.5781 Q579.8594,45.7344 579.1563,45.7344 Q576.6563,45.7344 575.3281,44.0938 Q574.0156,42.4375 574.0156,39.3125 Q574.0156,36.1875 575.3281,34.5313 Q576.6563,32.875 579.1563,32.875 Q579.8594,32.875 580.5,33.0313 Q581.1563,33.1875 581.7188,33.4844 L581.7188,36.2031 Q581.0938,35.625 580.5,35.3594 Q579.9063,35.0781 579.2813,35.0781 Q577.9375,35.0781 577.25,36.1563 Q576.5625,37.2188 576.5625,39.3125 Q576.5625,41.4063 577.25,42.4844 Q577.9375,43.5469 579.2813,43.5469 Q579.9063,43.5469 580.5,43.2813 Q581.0938,43 581.7188,42.4219 L581.7188,45.1406 Z " fill="#000000"/><text fill="#000000" font-family="sans-serif" font-size="14" lengthAdjust="spacing" textLength="60" x="599.25" y="44.3467">Payment</text><line style="stroke:#181818;stroke-width:0.5;" x1="505.5" x2="720.5" y1="55.5" y2="55.5"/><ellipse cx="515.5" cy="69.1484" fill="none" rx="3" ry="3" style="stroke:#038048;stroke-width:1.0;"/><text fill="#000000" font-family="sans-serif" font-size="14" lengthAdjust="spacing" textLength="50" x="524.5" y="72.4951">UUID id</text><ellipse cx="515.5" cy="85.4453" fill="none" rx="3" ry="3" style="stroke:#038048;stroke-width:1.0;"/><text fill="#000000" font-family="sans-serif" font-size="14" lengthAdjust="spacing" textLength="112" x="524.5" y="88.792">Decimal amount</text><ellipse cx="515.5" cy="101.7422" fill="none" rx="3" ry="3" style="stroke:#038048;stroke-width:1.0;"/><text fill="#000000" font-family="sans-serif" font-size="14" lengthAdjust="spacing" textLength="104" x="524.5" y="105.0889">String currency</text><ellipse cx="515.5" cy="118.0391" fill="none" rx="3" ry="3" style="stroke:#038048;stroke-width:1.0;"/><text fill="#000000" font-family="sans-serif" font-size="14" lengthAdjust="spacing" textLength="87" x="524.5" y="121.3857">String status</text><line style="stroke:#181818;stroke-width:0.5;" x1="505.5" x2="720.5" y1="128.6875" y2="128.6875"/><ellipse cx="515.5" cy="142.3359" fill="#84BE84" rx="3" ry="3" style="stroke:#038048;stroke-width:1.0;"/><text fill="#000000" font-family="sans-serif" font-size="14" lengthAdjust="spacing" textLength="191" x="524.5" y="145.6826">processPayment(): boolean</text></g><!--MD5=[19396e60fc58e3e432547cabb13c74da]
class NotificationService--><g id="elem_NotificationService"><rect codeLine="28" fill="#F1F1F1" height="80.5938" id="NotificationService" rx="2.5" ry="2.5" style="stroke:#181818;stroke-width:0.5;" width="220" x="353" y="428"/><ellipse cx="395.9" cy="444" fill="#ADD1B2" rx="11" ry="11" style="stroke:#181818;stroke-width:1.0;"/><path d="M398.8688,449.6406 Q398.2906,449.9375 397.65,450.0781 Q397.0094,450.2344 396.3063,450.2344 Q393.8063,450.2344 392.4781,448.5938 Q391.1656,446.9375 391.1656,443.8125 Q391.1656,440.6875 392.4781,439.0313 Q393.8063,437.375 396.3063,437.375 Q397.0094,437.375 397.65,437.5313 Q398.3063,437.6875 398.8688,437.9844 L398.8688,440.7031 Q398.2438,440.125 397.65,439.8594 Q397.0563,439.5781 396.4313,439.5781 Q395.0875,439.5781 394.4,440.6563 Q393.7125,441.7188 393.7125,443.8125 Q393.7125,445.9063 394.4,446.9844 Q395.0875,448.0469 396.4313,448.0469 Q397.0563,448.0469 397.65,447.7813 Q398.2438,447.5 398.8688,446.9219 L398.8688,449.6406 Z " fill="#000000"/><text fill="#000000" font-family="sans-serif" font-size="14" lengthAdjust="spacing" textLength="126" x="416.1" y="448.8467">NotificationService</text><line style="stroke:#181818;stroke-width:0.5;" x1="354" x2="572" y1="460" y2="460"/><line style="stroke:#181818;stroke-width:0.5;" x1="354" x2="572" y1="468" y2="468"/><ellipse cx="364" cy="481.6484" fill="#84BE84" rx="3" ry="3" style="stroke:#038048;stroke-width:1.0;"/><text fill="#000000" font-family="sans-serif" font-size="14" lengthAdjust="spacing" textLength="194" x="373" y="484.9951">sendEmailNotification(): void</text><ellipse cx="364" cy="497.9453" fill="#84BE84" rx="3" ry="3" style="stroke:#038048;stroke-width:1.0;"/><text fill="#000000" font-family="sans-serif" font-size="14" lengthAdjust="spacing" textLength="188" x="373" y="501.292">sendSMSNotification(): void</text></g><!--MD5=[02bff50907b0f9027f0e7937bf58d9ad]
class ApplicationService--><g id="elem_ApplicationService"><rect codeLine="33" fill="#F1F1F1" height="96.8906" id="ApplicationService" rx="2.5" ry="2.5" style="stroke:#181818;stroke-width:0.5;" width="220" x="748" y="246"/><ellipse cx="791.35" cy="262" fill="#ADD1B2" rx="11" ry="11" style="stroke:#181818;stroke-width:1.0;"/><path d="M794.3188,267.6406 Q793.7406,267.9375 793.1,268.0781 Q792.4594,268.2344 791.7563,268.2344 Q789.2563,268.2344 787.9281,266.5938 Q786.6156,264.9375 786.6156,261.8125 Q786.6156,258.6875 787.9281,257.0313 Q789.2563,255.375 791.7563,255.375 Q792.4594,255.375 793.1,255.5313 Q793.7563,255.6875 794.3188,255.9844 L794.3188,258.7031 Q793.6938,258.125 793.1,257.8594 Q792.5063,257.5781 791.8813,257.5781 Q790.5375,257.5781 789.85,258.6563 Q789.1625,259.7188 789.1625,261.8125 Q789.1625,263.9063 789.85,264.9844 Q790.5375,266.0469 791.8813,266.0469 Q792.5063,266.0469 793.1,265.7813 Q793.6938,265.5 794.3188,264.9219 L794.3188,267.6406 Z " fill="#000000"/><text fill="#000000" font-family="sans-serif" font-size="14" lengthAdjust="spacing" textLength="125" x="811.65" y="266.8467">ApplicationService</text><line style="stroke:#181818;stroke-width:0.5;" x1="749" x2="967" y1="278" y2="278"/><line style="stroke:#181818;stroke-width:0.5;" x1="749" x2="967" y1="286" y2="286"/><ellipse cx="759" cy="299.6484" fill="#84BE84" rx="3" ry="3" style="stroke:#038048;stroke-width:1.0;"/><text fill="#000000" font-family="sans-serif" font-size="14" lengthAdjust="spacing" textLength="194" x="768" y="302.9951">reviewApplication(): boolean</text><ellipse cx="759" cy="315.9453" fill="#84BE84" rx="3" ry="3" style="stroke:#038048;stroke-width:1.0;"/><text fill="#000000" font-family="sans-serif" font-size="14" lengthAdjust="spacing" textLength="178" x="768" y="319.292">approveApplication(): void</text><ellipse cx="759" cy="332.2422" fill="#84BE84" rx="3" ry="3" style="stroke:#038048;stroke-width:1.0;"/><text fill="#000000" font-family="sans-serif" font-size="14" lengthAdjust="spacing" textLength="161" x="768" y="335.5889">rejectApplication(): void</text></g><!--MD5=[b07be2b600772d055921457a51a4b081]
class AuthenticationService--><g id="elem_AuthenticationService"><rect codeLine="39" fill="#F1F1F1" height="96.8906" id="AuthenticationService" rx="2.5" ry="2.5" style="stroke:#181818;stroke-width:0.5;" width="197" x="10.5" y="246"/><ellipse cx="32.25" cy="262" fill="#ADD1B2" rx="11" ry="11" style="stroke:#181818;stroke-width:1.0;"/><path d="M35.2188,267.6406 Q34.6406,267.9375 34,268.0781 Q33.3594,268.2344 32.6563,268.2344 Q30.1563,268.2344 28.8281,266.5938 Q27.5156,264.9375 27.5156,261.8125 Q27.5156,258.6875 28.8281,257.0313 Q30.1563,255.375 32.6563,255.375 Q33.3594,255.375 34,255.5313 Q34.6563,255.6875 35.2188,255.9844 L35.2188,258.7031 Q34.5938,258.125 34,257.8594 Q33.4063,257.5781 32.7813,257.5781 Q31.4375,257.5781 30.75,258.6563 Q30.0625,259.7188 30.0625,261.8125 Q30.0625,263.9063 30.75,264.9844 Q31.4375,266.0469 32.7813,266.0469 Q33.4063,266.0469 34,265.7813 Q34.5938,265.5 35.2188,264.9219 L35.2188,267.6406 Z " fill="#000000"/><text fill="#000000" font-family="sans-serif" font-size="14" lengthAdjust="spacing" textLength="150" x="47.75" y="266.8467">AuthenticationService</text><line style="stroke:#181818;stroke-width:0.5;" x1="11.5" x2="206.5" y1="278" y2="278"/><line style="stroke:#181818;stroke-width:0.5;" x1="11.5" x2="206.5" y1="286" y2="286"/><ellipse cx="21.5" cy="299.6484" fill="#84BE84" rx="3" ry="3" style="stroke:#038048;stroke-width:1.0;"/><text fill="#000000" font-family="sans-serif" font-size="14" lengthAdjust="spacing" textLength="108" x="30.5" y="302.9951">login(): boolean</text><ellipse cx="21.5" cy="315.9453" fill="#84BE84" rx="3" ry="3" style="stroke:#038048;stroke-width:1.0;"/><text fill="#000000" font-family="sans-serif" font-size="14" lengthAdjust="spacing" textLength="91" x="30.5" y="319.292">logout(): void</text><ellipse cx="21.5" cy="332.2422" fill="#84BE84" rx="3" ry="3" style="stroke:#038048;stroke-width:1.0;"/><text fill="#000000" font-family="sans-serif" font-size="14" lengthAdjust="spacing" textLength="171" x="30.5" y="335.5889">validateToken(): boolean</text></g><!--MD5=[cd3f85b13335f745eda9642562da4880]
class VisaApplicationController--><g id="elem_VisaApplicationController"><rect codeLine="45" fill="#F1F1F1" height="96.8906" id="VisaApplicationController" rx="2.5" ry="2.5" style="stroke:#181818;stroke-width:0.5;" width="202" x="757" y="39.5"/><ellipse cx="772" cy="55.5" fill="#ADD1B2" rx="11" ry="11" style="stroke:#181818;stroke-width:1.0;"/><path d="M774.9688,61.1406 Q774.3906,61.4375 773.75,61.5781 Q773.1094,61.7344 772.4063,61.7344 Q769.9063,61.7344 768.5781,60.0938 Q767.2656,58.4375 767.2656,55.3125 Q767.2656,52.1875 768.5781,50.5313 Q769.9063,48.875 772.4063,48.875 Q773.1094,48.875 773.75,49.0313 Q774.4063,49.1875 774.9688,49.4844 L774.9688,52.2031 Q774.3438,51.625 773.75,51.3594 Q773.1563,51.0781 772.5313,51.0781 Q771.1875,51.0781 770.5,52.1563 Q769.8125,53.2188 769.8125,55.3125 Q769.8125,57.4063 770.5,58.4844 Q771.1875,59.5469 772.5313,59.5469 Q773.1563,59.5469 773.75,59.2813 Q774.3438,59 774.9688,58.4219 L774.9688,61.1406 Z " fill="#000000"/><text fill="#000000" font-family="sans-serif" font-size="14" lengthAdjust="spacing" textLength="170" x="786" y="60.3467">VisaApplicationController</text><line style="stroke:#181818;stroke-width:0.5;" x1="758" x2="958" y1="71.5" y2="71.5"/><line style="stroke:#181818;stroke-width:0.5;" x1="758" x2="958" y1="79.5" y2="79.5"/><ellipse cx="768" cy="93.1484" fill="#84BE84" rx="3" ry="3" style="stroke:#038048;stroke-width:1.0;"/><text fill="#000000" font-family="sans-serif" font-size="14" lengthAdjust="spacing" textLength="166" x="777" y="96.4951">createApplication(): void</text><ellipse cx="768" cy="109.4453" fill="#84BE84" rx="3" ry="3" style="stroke:#038048;stroke-width:1.0;"/><text fill="#000000" font-family="sans-serif" font-size="14" lengthAdjust="spacing" textLength="171" x="777" y="112.792">updateApplication(): void</text><ellipse cx="768" cy="125.7422" fill="#84BE84" rx="3" ry="3" style="stroke:#038048;stroke-width:1.0;"/><text fill="#000000" font-family="sans-serif" font-size="14" lengthAdjust="spacing" textLength="166" x="777" y="129.0889">deleteApplication(): void</text></g><!--MD5=[093c210125347143eef5bb9199eae634]
class UserRepository--><g id="elem_UserRepository"><rect codeLine="51" fill="#F1F1F1" height="96.8906" id="UserRepository" rx="2.5" ry="2.5" style="stroke:#181818;stroke-width:0.5;" width="204" x="608" y="420"/><ellipse cx="652.75" cy="436" fill="#ADD1B2" rx="11" ry="11" style="stroke:#181818;stroke-width:1.0;"/><path d="M655.7188,441.6406 Q655.1406,441.9375 654.5,442.0781 Q653.8594,442.2344 653.1563,442.2344 Q650.6563,442.2344 649.3281,440.5938 Q648.0156,438.9375 648.0156,435.8125 Q648.0156,432.6875 649.3281,431.0313 Q650.6563,429.375 653.1563,429.375 Q653.8594,429.375 654.5,429.5313 Q655.1563,429.6875 655.7188,429.9844 L655.7188,432.7031 Q655.0938,432.125 654.5,431.8594 Q653.9063,431.5781 653.2813,431.5781 Q651.9375,431.5781 651.25,432.6563 Q650.5625,433.7188 650.5625,435.8125 Q650.5625,437.9063 651.25,438.9844 Q651.9375,440.0469 653.2813,440.0469 Q653.9063,440.0469 654.5,439.7813 Q655.0938,439.5 655.7188,438.9219 L655.7188,441.6406 Z " fill="#000000"/><text fill="#000000" font-family="sans-serif" font-size="14" lengthAdjust="spacing" textLength="106" x="673.25" y="440.8467">UserRepository</text><line style="stroke:#181818;stroke-width:0.5;" x1="609" x2="811" y1="452" y2="452"/><line style="stroke:#181818;stroke-width:0.5;" x1="609" x2="811" y1="460" y2="460"/><ellipse cx="619" cy="473.6484" fill="#84BE84" rx="3" ry="3" style="stroke:#038048;stroke-width:1.0;"/><text fill="#000000" font-family="sans-serif" font-size="14" lengthAdjust="spacing" textLength="137" x="628" y="476.9951">findUserById(): User</text><ellipse cx="619" cy="489.9453" fill="#84BE84" rx="3" ry="3" style="stroke:#038048;stroke-width:1.0;"/><text fill="#000000" font-family="sans-serif" font-size="14" lengthAdjust="spacing" textLength="178" x="628" y="493.292">findAllUsers(): List&lt;User&gt;</text><ellipse cx="619" cy="506.2422" fill="#84BE84" rx="3" ry="3" style="stroke:#038048;stroke-width:1.0;"/><text fill="#000000" font-family="sans-serif" font-size="14" lengthAdjust="spacing" textLength="156" x="628" y="509.5889">updateUser(): boolean</text></g><!--MD5=[47e91a9d9ca8aed1a5fe41083a7a8e76]
class VisaApplicationRepository--><g id="elem_VisaApplicationRepository"><rect codeLine="57" fill="#F1F1F1" height="96.8906" id="VisaApplicationRepository" rx="2.5" ry="2.5" style="stroke:#181818;stroke-width:0.5;" width="318" x="847" y="420"/><ellipse cx="913.25" cy="436" fill="#ADD1B2" rx="11" ry="11" style="stroke:#181818;stroke-width:1.0;"/><path d="M916.2188,441.6406 Q915.6406,441.9375 915,442.0781 Q914.3594,442.2344 913.6563,442.2344 Q911.1563,442.2344 909.8281,440.5938 Q908.5156,438.9375 908.5156,435.8125 Q908.5156,432.6875 909.8281,431.0313 Q911.1563,429.375 913.6563,429.375 Q914.3594,429.375 915,429.5313 Q915.6563,429.6875 916.2188,429.9844 L916.2188,432.7031 Q915.5938,432.125 915,431.8594 Q914.4063,431.5781 913.7813,431.5781 Q912.4375,431.5781 911.75,432.6563 Q911.0625,433.7188 911.0625,435.8125 Q911.0625,437.9063 911.75,438.9844 Q912.4375,440.0469 913.7813,440.0469 Q914.4063,440.0469 915,439.7813 Q915.5938,439.5 916.2188,438.9219 L916.2188,441.6406 Z " fill="#000000"/><text fill="#000000" font-family="sans-serif" font-size="14" lengthAdjust="spacing" textLength="177" x="933.75" y="440.8467">VisaApplicationRepository</text><line style="stroke:#181818;stroke-width:0.5;" x1="848" x2="1164" y1="452" y2="452"/><line style="stroke:#181818;stroke-width:0.5;" x1="848" x2="1164" y1="460" y2="460"/><ellipse cx="858" cy="473.6484" fill="#84BE84" rx="3" ry="3" style="stroke:#038048;stroke-width:1.0;"/><text fill="#000000" font-family="sans-serif" font-size="14" lengthAdjust="spacing" textLength="251" x="867" y="476.9951">findApplicationById(): VisaApplication</text><ellipse cx="858" cy="489.9453" fill="#84BE84" rx="3" ry="3" style="stroke:#038048;stroke-width:1.0;"/><text fill="#000000" font-family="sans-serif" font-size="14" lengthAdjust="spacing" textLength="292" x="867" y="493.292">findAllApplications(): List&lt;VisaApplication&gt;</text><ellipse cx="858" cy="506.2422" fill="#84BE84" rx="3" ry="3" style="stroke:#038048;stroke-width:1.0;"/><text fill="#000000" font-family="sans-serif" font-size="14" lengthAdjust="spacing" textLength="199" x="867" y="509.5889">updateApplication(): boolean</text></g><!--MD5=[04c986212dbd7a6edcbb0c84ee03c1fe]
class PaymentService--><g id="elem_PaymentService"><rect codeLine="63" fill="#F1F1F1" height="80.5938" id="PaymentService" rx="2.5" ry="2.5" style="stroke:#181818;stroke-width:0.5;" width="210" x="1200" y="428"/><ellipse cx="1245.75" cy="444" fill="#ADD1B2" rx="11" ry="11" style="stroke:#181818;stroke-width:1.0;"/><path d="M1248.7188,449.6406 Q1248.1406,449.9375 1247.5,450.0781 Q1246.8594,450.2344 1246.1563,450.2344 Q1243.6563,450.2344 1242.3281,448.5938 Q1241.0156,446.9375 1241.0156,443.8125 Q1241.0156,440.6875 1242.3281,439.0313 Q1243.6563,437.375 1246.1563,437.375 Q1246.8594,437.375 1247.5,437.5313 Q1248.1563,437.6875 1248.7188,437.9844 L1248.7188,440.7031 Q1248.0938,440.125 1247.5,439.8594 Q1246.9063,439.5781 1246.2813,439.5781 Q1244.9375,439.5781 1244.25,440.6563 Q1243.5625,441.7188 1243.5625,443.8125 Q1243.5625,445.9063 1244.25,446.9844 Q1244.9375,448.0469 1246.2813,448.0469 Q1246.9063,448.0469 1247.5,447.7813 Q1248.0938,447.5 1248.7188,446.9219 L1248.7188,449.6406 Z " fill="#000000"/><text fill="#000000" font-family="sans-serif" font-size="14" lengthAdjust="spacing" textLength="110" x="1266.25" y="448.8467">PaymentService</text><line style="stroke:#181818;stroke-width:0.5;" x1="1201" x2="1409" y1="460" y2="460"/><line style="stroke:#181818;stroke-width:0.5;" x1="1201" x2="1409" y1="468" y2="468"/><ellipse cx="1211" cy="481.6484" fill="#84BE84" rx="3" ry="3" style="stroke:#038048;stroke-width:1.0;"/><text fill="#000000" font-family="sans-serif" font-size="14" lengthAdjust="spacing" textLength="184" x="1220" y="484.9951">initiatePayment(): Payment</text><ellipse cx="1211" cy="497.9453" fill="#84BE84" rx="3" ry="3" style="stroke:#038048;stroke-width:1.0;"/><text fill="#000000" font-family="sans-serif" font-size="14" lengthAdjust="spacing" textLength="170" x="1220" y="501.292">verifyPayment(): boolean</text></g><!--MD5=[b841bac98deb3a4232062aae866bea63]
link User to AuthenticationService--><g id="link_User_AuthenticationService"><path codeLine="68" d="M109,161.1 C109,187.29 109,216.39 109,240.62 " fill="none" id="User-to-AuthenticationService" style="stroke:#181818;stroke-width:1.0;"/><polygon fill="#181818" points="109,245.71,113,236.71,109,240.71,105,236.71,109,245.71" style="stroke:#181818;stroke-width:1.0;"/><text fill="#000000" font-family="sans-serif" font-size="13" lengthAdjust="spacing" textLength="32" x="110" y="212.0669">Uses</text></g><!--MD5=[46fb7b731b0b269120813f750f1d8539]
link VisaApplicationController to ApplicationService--><g id="link_VisaApplicationController_ApplicationService"><path codeLine="69" d="M858,136.69 C858,167.83 858,208.53 858,240.66 " fill="none" id="VisaApplicationController-to-ApplicationService" style="stroke:#181818;stroke-width:1.0;"/><polygon fill="#181818" points="858,245.74,862,236.74,858,240.74,854,236.74,858,245.74" style="stroke:#181818;stroke-width:1.0;"/><text fill="#000000" font-family="sans-serif" font-size="13" lengthAdjust="spacing" textLength="32" x="859" y="212.0669">Uses</text></g><!--MD5=[f42b26da2380607cb95a6720fef57d9f]
link ApplicationService to VisaApplicationRepository--><g id="link_ApplicationService_VisaApplicationRepository"><path codeLine="70" d="M899.23,343.41 C918.63,365.96 941.8,392.89 961.6,415.89 " fill="none" id="ApplicationService-to-VisaApplicationRepository" style="stroke:#181818;stroke-width:1.0;"/><polygon fill="#181818" points="964.99,419.85,962.1319,410.425,961.7208,416.0668,956.0789,415.6557,964.99,419.85" style="stroke:#181818;stroke-width:1.0;"/><text fill="#000000" font-family="sans-serif" font-size="13" lengthAdjust="spacing" textLength="32" x="937" y="386.0669">Uses</text></g><!--MD5=[2cc3c2e44f1bb9a1f41286c2c3f0fe44]
link ApplicationService to UserRepository--><g id="link_ApplicationService_UserRepository"><path codeLine="71" d="M816.77,343.41 C797.37,365.96 774.2,392.89 754.4,415.89 " fill="none" id="ApplicationService-to-UserRepository" style="stroke:#181818;stroke-width:1.0;"/><polygon fill="#181818" points="751.01,419.85,759.9211,415.6557,754.2792,416.0668,753.8681,410.425,751.01,419.85" style="stroke:#181818;stroke-width:1.0;"/><text fill="#000000" font-family="sans-serif" font-size="13" lengthAdjust="spacing" textLength="32" x="790" y="386.0669">Uses</text></g><!--MD5=[39340c4f2ad4512325e3dcd4ed853ded]
link ApplicationService to PaymentService--><g id="link_ApplicationService_PaymentService"><path codeLine="72" d="M968.25,337.56 C1031.19,361.62 1111.56,392.41 1183,420 C1188.11,421.97 1193.35,424 1198.63,426.05 " fill="none" id="ApplicationService-to-PaymentService" style="stroke:#181818;stroke-width:1.0;"/><polygon fill="#181818" points="1203.5,427.93,1196.5586,420.943,1198.8392,426.1198,1193.6624,428.4004,1203.5,427.93" style="stroke:#181818;stroke-width:1.0;"/><text fill="#000000" font-family="sans-serif" font-size="13" lengthAdjust="spacing" textLength="32" x="1103" y="386.0669">Uses</text></g><!--MD5=[3dbf82f47b0736ed3f4f8934364b6ac0]
link ApplicationService to NotificationService--><g id="link_ApplicationService_NotificationService"><path codeLine="73" d="M748.76,343.07 C689.13,369.04 615.98,400.89 558.62,425.86 " fill="none" id="ApplicationService-to-NotificationService" style="stroke:#181818;stroke-width:1.0;"/><polygon fill="#181818" points="553.82,427.95,563.6684,428.0443,558.4083,425.9632,560.4895,420.7031,553.82,427.95" style="stroke:#181818;stroke-width:1.0;"/><text fill="#000000" font-family="sans-serif" font-size="13" lengthAdjust="spacing" textLength="32" x="674" y="386.0669">Uses</text></g><!--MD5=[a3613e510c8ffe8ab179d569cf1b3272]
@startuml
class User {
    +String email
    +String passwordHash
    +DateTime lastLogin
    +authenticate(): boolean
    +register(): User
    +resetPassword(): boolean
}

class VisaApplication {
    +UUID id
    +String applicantEmail
    +String travelCountry
    +Date travelDate
    +String status
    +submitApplication(): boolean
    +validateDetails(): boolean
}

class Payment {
    +UUID id
    +Decimal amount
    +String currency
    +String status
    +processPayment(): boolean
}

class NotificationService {
    +sendEmailNotification(): void
    +sendSMSNotification(): void
}

class ApplicationService {
    +reviewApplication(): boolean
    +approveApplication(): void
    +rejectApplication(): void
}

class AuthenticationService {
    +login(): boolean
    +logout(): void
    +validateToken(): boolean
}

class VisaApplicationController {
    +createApplication(): void
    +updateApplication(): void
    +deleteApplication(): void
}

class UserRepository {
    +findUserById(): User
    +findAllUsers(): List<User>
    +updateUser(): boolean
}

class VisaApplicationRepository {
    +findApplicationById(): VisaApplication
    +findAllApplications(): List<VisaApplication>
    +updateApplication(): boolean
}

class PaymentService {
    +initiatePayment(): Payment
    +verifyPayment(): boolean
}

User - -> AuthenticationService: Uses
VisaApplicationController - -> ApplicationService: Uses
ApplicationService - -> VisaApplicationRepository: Uses
ApplicationService - -> UserRepository: Uses
ApplicationService - -> PaymentService: Uses
ApplicationService - -> NotificationService: Uses
@enduml

PlantUML version 1.2022.7(Mon Aug 22 17:01:30 UTC 2022)
(GPL source distribution)
Java Runtime: OpenJDK Runtime Environment
JVM: OpenJDK 64-Bit Server VM
Default Encoding: UTF-8
Language: en
Country: null
--></g></svg>